<?xml version="1.0" encoding="UTF-8" standalone="no"?>
<!-- Created with Inkscape (http://www.inkscape.org/) -->

<svg
   width="788.99097mm"
   height="493.11984mm"
   viewBox="0 0 788.99097 493.11984"
   version="1.1"
   id="svg1"
   inkscape:version="1.4 (e7c3feb100, 2024-10-09)"
   sodipodi:docname="logo_elsa-nn.svg"
   xmlns:inkscape="http://www.inkscape.org/namespaces/inkscape"
   xmlns:sodipodi="http://sodipodi.sourceforge.net/DTD/sodipodi-0.dtd"
   xmlns:xlink="http://www.w3.org/1999/xlink"
   xmlns="http://www.w3.org/2000/svg"
   xmlns:svg="http://www.w3.org/2000/svg">
  <sodipodi:namedview
     id="namedview1"
     pagecolor="#ffffff"
     bordercolor="#000000"
     borderopacity="0.25"
     inkscape:showpageshadow="2"
     inkscape:pageopacity="0.0"
     inkscape:pagecheckerboard="0"
     inkscape:deskcolor="#d1d1d1"
     inkscape:document-units="mm"
     inkscape:zoom="0.25297441"
     inkscape:cx="1685.9413"
     inkscape:cy="1288.6679"
     inkscape:window-width="1920"
     inkscape:window-height="1131"
     inkscape:window-x="0"
     inkscape:window-y="0"
     inkscape:window-maximized="1"
     inkscape:current-layer="layer1" />
  <defs
     id="defs1">
    <linearGradient
       x1="0"
       y1="0"
       x2="1"
       y2="0"
       gradientUnits="userSpaceOnUse"
       gradientTransform="matrix(-1628.8574,0,0,-1628.8574,2358.1786,1315.5741)"
       spreadMethod="pad"
       id="linearGradient2">
      <stop
         style="stop-opacity:1;stop-color:#103482"
         offset="0"
         id="stop1" />
      <stop
         style="stop-opacity:1;stop-color:#008094"
         offset="1"
         id="stop2" />
    </linearGradient>
    <linearGradient
       x1="0"
       y1="0"
       x2="1"
       y2="0"
       gradientUnits="userSpaceOnUse"
       gradientTransform="matrix(-542.31941,0,0,-542.31941,506.4737,187.25128)"
       spreadMethod="pad"
       id="linearGradient4">
      <stop
         style="stop-opacity:1;stop-color:#103482"
         offset="0"
         id="stop3" />
      <stop
         style="stop-opacity:1;stop-color:#008094"
         offset="1"
         id="stop4" />
    </linearGradient>
    <linearGradient
       x1="0"
       y1="0"
       x2="1"
       y2="0"
       gradientUnits="userSpaceOnUse"
       gradientTransform="matrix(-1628.8574,0,0,-1628.8574,2358.1786,1315.5732)"
       spreadMethod="pad"
       id="linearGradient8">
      <stop
         style="stop-opacity:1;stop-color:#103482"
         offset="0"
         id="stop7" />
      <stop
         style="stop-opacity:1;stop-color:#008094"
         offset="1"
         id="stop8" />
    </linearGradient>
    <linearGradient
       x1="0"
       y1="0"
       x2="1"
       y2="0"
       gradientUnits="userSpaceOnUse"
       gradientTransform="matrix(-542.31941,0,0,-542.31941,506.4737,200.44328)"
       spreadMethod="pad"
       id="linearGradient10">
      <stop
         style="stop-opacity:1;stop-color:#103482"
         offset="0"
         id="stop9" />
      <stop
         style="stop-opacity:1;stop-color:#008094"
         offset="1"
         id="stop10" />
    </linearGradient>
    <linearGradient
       x1="0"
       y1="0"
       x2="1"
       y2="0"
       gradientUnits="userSpaceOnUse"
       gradientTransform="matrix(-517.91896,0,0,-517.91896,473.96385,1.3391162)"
       spreadMethod="pad"
       id="linearGradient16">
      <stop
         style="stop-opacity:1;stop-color:#103482"
         offset="0"
         id="stop15" />
      <stop
         style="stop-opacity:1;stop-color:#008094"
         offset="1"
         id="stop16" />
    </linearGradient>
    <linearGradient
       inkscape:collect="always"
       xlink:href="#linearGradient2"
       id="linearGradient1"
       gradientUnits="userSpaceOnUse"
       gradientTransform="matrix(-542.31941,0,0,-542.31941,506.4737,187.69613)"
       x1="0"
       y1="0"
       x2="1"
       y2="0"
       spreadMethod="pad" />
    <linearGradient
       inkscape:collect="always"
       xlink:href="#linearGradient2"
       id="linearGradient3"
       gradientUnits="userSpaceOnUse"
       gradientTransform="matrix(-542.31941,0,0,-542.31941,506.4737,187.69613)"
       x1="0"
       y1="0"
       x2="1"
       y2="0"
       spreadMethod="pad" />
    <linearGradient
       inkscape:collect="always"
       xlink:href="#linearGradient8"
       id="linearGradient5"
       gradientUnits="userSpaceOnUse"
       gradientTransform="matrix(-542.31941,0,0,-542.31941,506.4737,187.69583)"
       x1="0"
       y1="0"
       x2="1"
       y2="0"
       spreadMethod="pad" />
    <linearGradient
       inkscape:collect="always"
       xlink:href="#linearGradient8"
       id="linearGradient6"
       gradientUnits="userSpaceOnUse"
       gradientTransform="matrix(-542.31941,0,0,-542.31941,506.4737,187.69583)"
       x1="0"
       y1="0"
       x2="1"
       y2="0"
       spreadMethod="pad" />
    <linearGradient
       inkscape:collect="always"
       xlink:href="#linearGradient8"
       id="linearGradient7"
       gradientUnits="userSpaceOnUse"
       gradientTransform="matrix(-542.31941,0,0,-542.31941,506.4737,187.69583)"
       x1="0"
       y1="0"
       x2="1"
       y2="0"
       spreadMethod="pad" />
  </defs>
  <g
     inkscape:label="Layer 1"
     inkscape:groupmode="layer"
     id="layer1"
     transform="translate(176.74167,175.15417)">
    <rect
       style="fill:#ffffff;stroke-width:0"
       id="rect16"
       width="788.99097"
       height="493.11984"
       x="-176.74167"
       y="-175.15416" />
    <g
       id="g7"
       transform="matrix(1.2691625,0,0,1.2691625,-56.720346,-21.371158)">
      <path
         id="path2"
         d="m -74.41002,134.41 v 106.57246 h 65.9820882 c 0.9246973,-4.15069 1.3877134,-8.05237 1.3877134,-11.70987 v 0 c 0,-3.35788 -0.4630161,-7.11436 -1.3877134,-11.26508 v 0 H -47.122763 v -21.04743 h 29.753269 c 0.924697,-4.24747 1.387713,-8.10164 1.387713,-11.5616 v 0 c 0,-3.35785 -0.463016,-7.21159 -1.387713,-11.56117 v 0 h -29.753269 v -16.30454 h 37.7696878 c 0.8217075,-4.54403 1.2336733,-8.4488 1.2336733,-11.70986 v 0 c 0,-1.67851 -0.103436,-3.45777 -0.3085299,-5.33601 v 0 c -0.2068685,-1.87557 -0.5158412,-3.90254 -0.9251434,-6.0769 v 0 z"
         style="fill:url(#linearGradient1);stroke:none;stroke-width:0.443925" />
      <path
         id="path4"
         d="m 14.387212,133.81735 c -2.261803,0.19887 -4.7788646,0.49499 -7.5542914,0.88873 v 0 106.27638 H 69.731052 c 0.514499,-2.56854 0.848343,-4.76644 1.002829,-6.59584 v 0 c 0.154486,-1.82809 0.231297,-3.58072 0.231297,-5.26232 v 0 c 0,-1.4818 -0.07681,-3.13544 -0.231297,-4.9653 v 0 c -0.154486,-1.8272 -0.48833,-3.97626 -1.002829,-6.44758 v 0 H 34.119735 v -83.00534 c -2.673326,-0.39374 -5.164195,-0.68986 -7.476606,-0.88873 v 0 c -2.312414,-0.19753 -4.393538,-0.29698 -6.243825,-0.29698 v 0 c -1.748625,0 -3.752506,0.0994 -6.012092,0.29698"
         style="fill:url(#linearGradient4);stroke:none;stroke-width:0.443925" />
      <path
         id="path6"
         d="m 103.49387,134.78023 c -4.728711,1.43389 -8.763567,3.55761 -12.10187,6.37389 v 0 c -3.341433,2.81628 -5.935738,6.25094 -7.785579,10.30131 v 0 c -1.84984,4.05304 -2.774994,8.69652 -2.774994,13.93307 v 0 c 0,4.25014 0.590411,7.95515 1.773031,11.11679 v 0 c 1.179955,3.16344 2.851804,5.95485 5.010151,8.37469 v 0 c 2.158381,2.42251 4.752685,4.52092 7.785578,6.29932 v 0 c 3.030263,1.77835 6.397863,3.31166 10.097543,4.59463 v 0 l 8.63306,3.11323 c 1.33487,0.49499 2.64491,1.01395 3.93094,1.55642 v 0 c 1.2843,0.5438 2.44072,1.21102 3.46885,2.00077 v 0 c 1.02591,0.79197 1.84985,1.75528 2.46646,2.88995 v 0 c 0.61705,1.13734 0.92515,2.49709 0.92515,4.07658 v 0 c 0,3.75695 -1.46409,6.3992 -4.39354,7.92984 v 0 c -2.92904,1.53335 -7.01404,2.29689 -12.25592,2.29689 v 0 c -6.99051,0 -15.212012,-1.97503 -24.666309,-5.92865 v 0 c -1.440119,4.05307 -2.673779,8.02976 -3.699681,11.93274 v 0 c -1.028599,3.90391 -1.749092,7.58405 -2.158381,11.04224 v 0 c 5.65117,2.07491 10.918821,3.60866 15.801988,4.59464 v 0 c 4.880103,0.98685 10.506873,1.4827 16.880763,1.4827 v 0 c 6.98738,0 13.18061,-0.81548 18.57698,-2.44604 v 0 c 5.39504,-1.63053 9.94349,-3.95092 13.64317,-6.96607 v 0 c 3.70012,-3.01382 6.49865,-6.61984 8.40176,-10.8207 v 0 c 1.90045,-4.19867 2.85177,-8.91626 2.85177,-14.15505 v 0 c 0,-4.84055 -0.66945,-8.96773 -2.00342,-12.37665 v 0 c -1.33758,-3.40935 -3.23802,-6.32285 -5.70448,-8.74536 v 0 c -2.46645,-2.4207 -5.4221,-4.49518 -8.86475,-6.22516 v 0 c -3.44398,-1.72775 -7.32255,-3.432 -11.63885,-5.1136 v 0 l -7.39983,-2.81671 c -2.67374,-0.98685 -4.98661,-2.17213 -6.93723,-3.55672 v 0 c -1.95372,-1.38328 -2.92902,-3.50747 -2.92902,-6.37436 v 0 c 0,-1.67937 0.35869,-3.08659 1.07918,-4.22393 v 0 c 0.71739,-1.13514 1.66872,-2.02431 2.8518,-2.66845 v 0 c 1.18039,-0.64102 2.51706,-1.11161 4.00819,-1.40769 v 0 c 1.4885,-0.29699 3.0569,-0.44482 4.70164,-0.44482 v 0 c 5.3431,0 9.81388,0.59308 13.41235,1.77926 v 0 c 3.59623,1.18485 6.73081,2.32262 9.40369,3.40845 v 0 c 1.64341,-3.35828 3.00669,-6.94076 4.08543,-10.74612 v 0 c 1.07921,-3.80309 1.8232,-7.28616 2.23562,-10.44914 v 0 c -5.54995,-1.8769 -10.76786,-3.3099 -15.64707,-4.29941 v 0 c -4.8832,-0.98642 -9.94395,-1.48184 -15.18584,-1.48184 v 0 c -5.85759,0 -11.15274,0.71783 -15.87833,2.14906"
         style="fill:url(#linearGradient3);stroke:none;stroke-width:0.443925" />
      <path
         id="path8"
         d="m 199.92397,133.81735 c -2.31243,0.19887 -4.80552,0.44392 -7.47707,0.74091 v 0 l -34.53255,105.83112 c 2.97962,0.49586 5.67737,0.8639 8.09365,1.11161 v 0 c 2.41318,0.24591 4.54802,0.37066 6.3983,0.37066 v 0 c 1.84984,0 3.74985,-0.0999 5.70357,-0.29608 v 0 c 1.95149,-0.19934 4.10944,-0.49589 6.47511,-0.88963 v 0 l 5.70401,-20.30653 c 2.67111,0.69252 5.24145,1.21102 7.7079,1.55595 v 0 c 2.46646,0.34759 4.8805,0.51896 7.24531,0.51896 v 0 c 2.56767,0 5.16464,-0.19667 7.78515,-0.59307 v 0 c 2.62094,-0.39334 5.36973,-0.98599 8.24813,-1.77793 v 0 l 5.8585,20.60262 c 2.36301,0.39374 4.57199,0.69029 6.62916,0.88963 v 0 c 2.05404,0.1962 4.1094,0.29608 6.16614,0.29608 v 0 c 4.41751,0 9.55817,-0.44481 15.4162,-1.33401 v 0 l -34.07,-105.97938 c -2.98228,-0.29699 -5.62719,-0.54204 -7.93916,-0.74091 v 0 c -2.31244,-0.19753 -4.44638,-0.29698 -6.39787,-0.29698 v 0 c -2.3657,0 -4.70207,0.0994 -7.01448,0.29698 m 0.84835,67.88609 c -1.54177,-0.29655 -3.18741,-0.69076 -4.93338,-1.18618 v 0 l 10.32841,-38.0933 9.86669,38.24203 c -1.84984,0.49499 -3.62288,0.86609 -5.31823,1.1116 v 0 c -1.69625,0.24724 -3.41824,0.37023 -5.16464,0.37023 v 0 c -1.64564,0 -3.23798,-0.14829 -4.77885,-0.44438"
         style="fill:url(#linearGradient5);stroke:none;stroke-width:0.443925" />
      <path
         id="path10"
         d="m 263.97897,189.25264 c -0.92559,4.15026 -1.38815,7.90634 -1.38815,11.26462 v 0 c 0,3.26109 0.46256,6.9661 1.38815,11.11726 v 0 h 41.3162 c 0.5123,-2.07538 0.84701,-4.05127 1.0015,-5.92955 v 0 c 0.15359,-1.87601 0.2313,-3.65437 0.2313,-5.33597 v 0 c 0,-1.67894 -0.0777,-3.43199 -0.2313,-5.26142 v 0 c -0.15449,-1.82764 -0.4892,-3.78046 -1.0015,-5.85494 v 0 z"
         style="fill:url(#linearGradient10);stroke:none;stroke-width:0.443925" />
      <path
         id="path12"
         d="m 387.77,133.81735 c -2.15835,0.19887 -4.57376,0.49499 -7.24574,0.88873 v 0 58.10375 l -35.76582,-58.10375 c -1.44009,-0.29608 -3.16074,-0.56687 -5.16464,-0.81504 v 0 c -2.00433,-0.24505 -3.93141,-0.37067 -5.78082,-0.37067 v 0 c -1.74906,0 -3.54606,0.0994 -5.39636,0.29698 v 0 c -1.84984,0.19887 -3.90654,0.49499 -6.16614,0.88873 v 0 105.83156 c 4.6244,0.8892 8.78708,1.33401 12.48722,1.33401 v 0 c 3.69969,0 7.80955,-0.44481 12.33314,-1.33401 v 0 -57.80672 l 35.91987,57.80672 c 0.92512,0.19934 2.41405,0.46746 4.47121,0.81505 v 0 c 2.05451,0.34493 4.36691,0.51896 6.93724,0.51896 v 0 c 2.25913,0 4.3669,-0.14782 6.32062,-0.44481 v 0 c 1.95149,-0.29609 3.44222,-0.59307 4.47078,-0.8892 v 0 l 0.15406,-105.83156 c -2.15838,-0.39374 -4.21508,-0.68986 -6.16661,-0.88873 v 0 c -1.95371,-0.19753 -3.80399,-0.29698 -5.54995,-0.29698 v 0 c -1.74863,0 -3.69968,0.0994 -5.85806,0.29698"
         style="fill:url(#linearGradient6);stroke:none;stroke-width:0.443925" />
      <path
         id="path14"
         d="m 489.36387,133.81735 c -2.15838,0.19887 -4.57423,0.49499 -7.24577,0.88873 v 0 58.10375 l -35.76625,-58.10375 c -1.44009,-0.29608 -3.16075,-0.56687 -5.16421,-0.81504 v 0 c -2.00476,-0.24505 -3.93141,-0.37067 -5.78078,-0.37067 v 0 c -1.74953,0 -3.54653,0.0994 -5.39637,0.29698 v 0 c -1.84984,0.19887 -3.90701,0.49499 -6.16614,0.88873 v 0 105.83156 c 4.62437,0.8892 8.78708,1.33401 12.48676,1.33401 v 0 c 3.70012,0 7.80998,-0.44481 12.3336,-1.33401 v 0 -57.80672 l 35.91984,57.80672 c 0.92515,0.19934 2.41408,0.46746 4.47078,0.81505 v 0 c 2.0545,0.34493 4.36734,0.51896 6.93724,0.51896 v 0 c 2.25959,0 4.3669,-0.14782 6.32062,-0.44481 v 0 c 1.95149,-0.29609 3.44265,-0.59307 4.47121,-0.8892 v 0 l 0.15362,-105.83156 c -2.15794,-0.39374 -4.21508,-0.68986 -6.1666,-0.88873 v 0 c -1.95372,-0.19753 -3.80356,-0.29698 -5.54995,-0.29698 v 0 c -1.74819,0 -3.69925,0.0994 -5.8576,0.29698"
         style="fill:url(#linearGradient7);stroke:none;stroke-width:0.443925" />
      <path
         id="path16"
         d="m -73.267796,-85.213629 5.9566,38.389407 c 22.969187,-3.106597 51.780445,-6.216743 61.1108872,-9.373058 v 0 c -0.7560075,1.416569 -1.1275738,2.196103 -1.5714989,2.932576 v 0 c -4.8854103,8.106095 -6.0125383,16.813261 -4.0925563,25.975455 v 0 c 2.1468276,10.247149 7.3607413,18.8539917 14.3552431,26.48508377 v 0 C 4.0779132,0.92803607 5.6671714,2.6580166 7.5036942,4.6601229 v 0 C -0.57088016,10.563898 -35.681452,16.429051 -56.585936,22.294205 v 0 L -44.646097,99.238153 474.81552,77.274022 c -0.89718,-4.825477 -1.85916,-9.636304 -3.03026,-14.394307 v 0 c -1.52709,-6.20742 -6.24115,-8.932682 -12.53956,-7.792237 v 0 c -2.97919,0.53937 -5.77949,2.090004 -8.64724,3.21802 v 0 c -6.31753,2.484214 -12.44328,5.7595 -18.97965,7.319013 v 0 c -11.60778,2.769657 -22.76229,0.0076 -33.35882,-5.098049 v 0 c -6.41874,-3.09239 -12.6843,-6.531932 -19.22067,-9.346423 v 0 c -10.00255,-4.306526 -20.45702,-4.35447 -31.04599,-2.485988 v 0 c -11.61268,2.049165 -23.21114,2.394095 -34.6964,-0.938901 v 0 c -5.4847,-1.591475 -8.06302,-7.464619 -5.57126,-12.584866 v 0 c 1.51113,-3.105265 4.10278,-4.85167 7.19383,-5.972584 v 0 c 7.73185,-2.802506 15.70967,-4.577324 23.9356,-4.714051 v 0 c 7.53876,-0.125187 15.08419,0.245933 22.62738,0.285886 v 0 c 12.50184,0.06615 24.72091,-1.544417 36.42059,-6.254475 v 0 c 5.45363,-2.196103 9.995,-5.524218 13.4816,-10.4753289 v 0 c -4.0029,1.336663 -8.01065,2.6591189 -12.00689,4.0157589 v 0 c -1.95192,0.663669 -3.40845,0.227734 -4.98751,-1.243881 v 0 c -2.68397,-2.5015268 -4.9995,-5.2356685 -7.05843,-8.1313983 v 0 c 0.45504,4.1156391 3.58738,8.0665833 0.0136,10.3541363 v 0 c -1.52045,0.973531 -14.23495,3.463957 -16.43062,2.749235 v 0 c -4.52981,-1.475168 -9.11069,-2.734585 -13.6778,-4.043723 v 0 c -0.35115,-0.101216 -0.83592,0.01155 -1.12668,0.179344 v 0 c -3.52432,2.030519 -7.31103,3.621995 -11.75605,4.165361 v 0 c -0.3365,0.04128 -0.67344,0.252595 -0.87454,0.483878 v 0 c -1.91467,2.204094 -4.67411,3.362298 -7.76251,4.063703 v 0 c -3.89279,0.883412 -7.76693,0.106542 -11.80974,-2.146827 v 0 c 0.61481,-0.415072 1.05876,-0.736474 1.52841,-1.029022 v 0 c 2.10688,-1.313134 4.17779,-2.668885 6.34017,-3.917204 v 0 c 6.37299,-3.6783732 12.77975,-7.3176817 19.19359,-10.9481105 v 0 c 0.25747,-0.1456067 0.72316,-0.089229 1.09606,-0.046612 v 0 c 4.07567,0.4661225 8.15891,1.0272475 12.22616,1.4001456 v 0 c 3.04667,0.2787845 6.07381,0.3205125 9.30114,0.4772196 v 0 C 373.3076,3.9365244 373.26541,3.8029004 373.16999,3.7114538 v 0 c -4.23239,-4.05704414 -9.01081,-6.8897375 -15.01893,-7.6563959 v 0 c -6.78319,-0.8652133 -13.37106,-2.949447 -19.709,-6.1013249 v 0 c -0.53714,-0.267687 -1.38814,-0.3507 -1.88533,-0.177569 v 0 c -4.34559,1.5115689 -8.89362,2.4762195 -13.91755,2.3026455 v 0 c -0.42617,-0.015082 -0.87232,0.1917761 -1.19727,0.4124086 v 0 c -1.88667,1.2838347 -3.56517,2.827809 -5.63562,3.8688172 v 0 c -6.5963,3.31612897 -13.71732,2.71993492 -21.45895,-1.729095 v 0 c 1.55861,-1.0334603 2.96187,-1.9577147 4.35714,-2.8908454 v 0 C 309.4306,-15.432866 321.75221,-20.49185 334.211,-25.366603 v 0 c 0.0719,-0.02797 0.15449,-0.04839 0.23353,-0.07058 v 0 c -1.06409,-0.525167 -2.12509,-1.05699 -3.18385,-1.593697 v 0 c -0.99261,-0.503855 -2.62137,-0.614839 -3.59937,-0.153597 v 0 c -9.20658,4.345594 -18.91525,5.681368 -28.97903,5.386599 v 0 c -1.28827,-0.03818 -2.70928,0.65124 -3.88657,1.323345 v 0 c -3.75029,2.140611 -7.22713,4.865877 -11.15631,6.562117 v 0 c -5.64721,2.438044 -11.69834,3.513232 -17.88312,2.178347 v 0 c -2.81938,-0.60818 -5.47361,-1.833859 -5.96061,-5.082957 v 0 c -0.47322,-3.157647 2.28799,-4.152929 4.37932,-5.306692 v 0 c 4.52495,-2.495753 9.09338,-4.935129 13.76973,-7.1299 v 0 c 6.452,-3.028022 11.88479,-7.744294 19.46571,-9.01481 v 0 c 9.219,-1.544864 18.18763,-4.748234 27.15007,-7.595134 v 0 c 3.78092,-1.200819 7.36297,-1.767714 11.20735,-0.741801 v 0 c 1.99234,0.53138 4.03529,0.910936 6.07691,1.212365 v 0 c 14.91326,2.200098 29.7777,5.009262 44.77173,6.255361 v 0 c 7.13791,0.593088 13.2512,2.41851 19.11682,6.047607 v 0 c 1.0552,0.653018 2.08201,1.354419 3.15765,1.971479 v 0 c 24.29874,13.930848 48.6623,27.7507159 72.8718,41.834276 v 0 c 1.7473,1.016147 6.62117,3.658396 12.69275,6.971415 v 0 L 472.22418,-96.559498 Z m 87.370454,66.790474 C 3.6353199,-19.200914 -5.0833926,-29.246963 -4.2328288,-39.549161 v 0 C -3.8998841,-52.864727 7.9498401,-59.896519 17.09605,-59.333176 v 0 c 11.885682,0.731146 20.280769,10.567221 19.331211,22.237152 v 0 c -0.873647,10.735468 -9.863596,18.733688 -20.681634,18.734131 v 0 c -0.543366,0 -1.09117,-0.01998 -1.642969,-0.06126 m 22.797831,-40.196188 c 6.814711,0.550471 13.227226,0.973087 19.618885,1.606571 v 0 c 11.440845,1.133344 22.779176,2.884187 33.581666,7.027797 v 0 c 9.98391,3.828863 18.46957,9.577263 22.82449,19.824854 v 0 c 1.46096,3.437321 2.12995,7.211582 3.36317,11.542084 v 0 c -4.15248,-1.520449 -7.39004,-2.4558 -10.38344,-3.897674 v 0 c -1.75572,-0.845233 -3.39204,-2.287996 -4.60306,-3.836408 v 0 c -1.878709,-2.403861 -3.158981,-5.272958 -5.024803,-7.688805 v 0 C 88.130007,-44.58994 77.312868,-49.877101 64.015956,-48.736213 v 0 c -5.991672,0.514513 -11.843961,2.646244 -17.935517,4.085897 v 0 c -2.714611,-4.130731 -5.784361,-8.802168 -9.17995,-13.969027 m 88.543761,43.655264 c -1.78016,-0.522058 -2.06782,-1.500915 -2.1677,-3.214029 v 0 c -0.25171,-4.306972 -0.32539,-8.732915 -1.42191,-12.858323 v 0 c -2.0274,-7.627097 -7.73098,-12.650563 -14.19986,-17.386814 v 0 c 9.66562,-3.178956 18.49974,-0.106096 23.37182,8.311631 v 0 c 1.63366,2.821596 2.79274,6.130177 3.28816,9.35175 v 0 c 0.95222,6.182117 0.60063,12.363791 -2.38255,18.298197 v 0 c -2.28177,-0.897619 -4.33494,-1.870706 -6.48796,-2.502412 M 139.4217,-42.09996 c 9.73753,0 18.63292,-0.03995 27.52653,0.06615 v 0 c 0.82527,0.0098 1.78992,0.80262 2.4354,1.475168 v 0 c 5.25739,5.481155 2.67421,15.404239 -4.857,17.938614 v 0 c -4.82194,1.622549 -9.7704,1.490703 -14.81604,1.358857 v 0 c -2.2565,-0.0586 -4.53294,-0.11764 -6.82583,-0.01998 v 0 c 1.62167,-7.474385 -0.44701,-13.907765 -3.46306,-20.818808 m -95.830355,18.319505 c 3.996222,-12.473439 17.461836,-19.275276 31.198701,-15.761601 v 0 c 7.422003,1.898228 12.775753,6.499966 16.449665,13.033673 v 0 c 3.504808,6.23317 8.319189,10.531263 15.247999,12.793066 v 0 c 7.23109,2.360801 14.2811,5.2924885 21.34708,8.1322869 v 0 c 4.44901,1.7885788 5.84651,5.46117839 4.30118,10.4522422 v 0 c -1.27584,4.121409 -5.32179,6.9598759 -9.31979,6.0400589 v 0 c -3.0533,-0.70229 -6.08756,-1.7939055 -8.90027,-3.1793982 v 0 C 104.06031,2.8755394 94.127007,2.3077588 83.711632,5.9350779 v 0 c -4.61508,1.606568 -9.586143,2.1921078 -14.395663,3.2411066 v 0 C 51.106126,8.8103882 38.329487,-7.3565165 43.591345,-23.780455 m 133.952955,0.01199 c 3.32635,-4.796624 4.41574,-9.810771 0.83992,-16.00221 v 0 c 1.46406,-0.115865 2.5952,-0.49409 3.55408,-0.235282 v 0 c 6.86799,1.854725 13.70577,3.820873 20.53736,5.807444 v 0 c 0.80706,0.234836 1.82098,0.616614 2.22141,1.254979 v 0 c 2.3661,3.770265 -0.61085,12.124513 -4.82104,13.825195 v 0 c -1.43745,0.580655 -3.31703,0.845679 -5.38971,0.845679 v 0 c -6.03652,3.33e-4 -13.71865,-2.247153 -16.94202,-5.495805 m 32.95443,10.521052 c -1.52222,-1.187061 -1.80899,-2.086454 -0.30008,-3.791574 v 0 c 2.71636,-3.069307 4.25856,-6.649571 2.42383,-10.891286 v 0 c -0.20156,-0.464791 0.004,-1.556849 0.31917,-1.70157 v 0 c 0.69518,-0.317853 1.7939,-0.56867 2.35904,-0.230841 v 0 c 5.93308,3.54919 11.86748,7.106371 17.64118,10.90549 v 0 c 2.85443,1.878697 3.28683,4.729146 1.86272,7.841959 v 0 c -1.60393,3.5056845 -4.68966,4.2146336 -7.9099,4.4130686 v 0 c -6.26645,-0.4949755 -11.60998,-2.8136023 -16.39596,-6.5452466 m -59.33117,11.503905 c 1.37839,-3.2859443 2.67241,-6.3712294 4.23325,-10.092665 v 0 c 6.71706,4.8103844 13.33644,9.4565175 19.81777,14.2882107 v 0 c 1.01705,0.7582249 1.40726,2.358134 2.46336,4.2381627 v 0 c -5.59703,-0.3462624 -9.32159,1.1533204 -11.9079,5.2676276 v 0 c -2.35635,-7.5236647 -9.20392,-9.9230838 -14.60648,-13.70134 m 155.26139,15.921411 c 0.31343,-0.364461 0.49988,-0.634812 0.7427,-0.855445 v 0 c 6.32818,-5.751509 12.65632,-11.5030152 19.01024,-17.2323272 v 0 c 0.39554,-0.3564739 0.95668,-0.6161707 1.51913,-0.7742063 v 0 c 2.48866,-0.6969664 5.04834,-1.2660787 7.49701,-2.0300769 v 0 c 1.62434,-0.5069615 3.10128,-0.1922189 4.82817,0.4865454 v 0 c 3.58648,1.4081329 7.21777,2.7483451 10.88596,3.827532 v 0 c 3.24421,0.9544392 6.56343,1.51733882 9.92261,2.2697938 v 0 c -2.44424,-0.11098045 -4.87474,0.09144991 -7.25686,-0.40175436 v 0 c -3.60466,-0.74534994 -6.18122,0.16380879 -8.74133,1.70023866 v 0 c -4.45437,2.6728798 -8.99174,5.2667386 -14.43428,6.618494 v 0 c -0.73158,0.1820109 -1.42634,0.7138334 -1.80323,1.2851665 v 0 c -2.12639,3.2233504 -5.24541,5.4616244 -9.26206,6.7290354 v 0 c -1.425,0.449698 -2.87044,0.668553 -4.33627,0.668553 v 0 c -2.78298,0 -5.63965,-0.789302 -8.57179,-2.291549 m -174.40571,1.812997 c 6.83645,-3.068418 8.86432,-8.1460474 7.84284,-15.03711332 v 0 c 1.2905,0.40086542 2.05847,0.49408992 2.67065,0.85278122 v 0 c 4.86276,2.8495636 9.73354,5.6884697 14.52395,8.6547871 v 0 c 3.3636,2.083345 4.46412,4.730478 3.62909,7.997331 v 0 c -0.82836,3.237997 -3.78448,5.913983 -7.26219,6.057815 v 0 c -0.2859,0.01155 -0.56956,0.01731 -0.85057,0.01731 v 0 c -7.68879,0 -13.68269,-4.333608 -20.55377,-8.542915 m 41.5142,22.562106 c -3.84751,-4.722487 -6.52928,-9.962593 -5.46518,-16.314289 v 0 c 0.15491,-0.92248 1.22746,-2.197878 2.09445,-2.408745 v 0 c 4.11207,-1.000166 6.71083,-3.542085 8.51183,-7.211582 v 0 c 0.36225,-0.738248 1.26785,-1.674931 1.92752,-1.678484 v 0 c 0.74579,-0.004 1.88536,0.778648 2.18635,1.497809 v 0 c 3.43599,8.224619 6.74502,16.502955 10.08732,24.766642 v 0 c -0.31916,0.198881 -0.63835,0.398202 -0.95755,0.597526 v 0 c -2.89572,-2.887296 -6.38854,-2.567669 -9.78724,-1.689138 v 0 c -1.95771,0.506519 -3.6819,1.862712 -5.61165,2.557901 v 0 c -0.44082,0.158927 -1.06409,0.260143 -1.63542,0.260143 v 0 c -0.59354,0 -1.13115,-0.109206 -1.35043,-0.377783 m -84.477851,-9.30247 c 3.990908,-3.231338 8.628594,-6.111975 12.093451,-10.030515 v 0 c 3.66415,-4.143163 7.41801,-4.508956 12.05436,-2.895286 v 0 c 0.65081,0.226402 1.30648,0.440818 2.15262,0.724933 v 0 c -4.88719,10.045607 -10.8256,15.15431 -17.377047,15.154753 v 0 c -2.869118,0 -5.855832,-0.979746 -8.923384,-2.953885 M 66.426476,21.539972 c 3.97223,-1.939955 7.9667,-2.822925 12.302073,-2.674655 v 0 c 2.065588,0.07058 4.135605,0.01199 6.507503,0.01199 v 0 c -10.703505,13.190822 -31.616859,13.15797 -43.555367,5.53398 v 0 c 1.724654,0.111869 3.202039,0.281451 4.680314,0.291659 v 0 c 0.554909,0.004 1.110703,0.0067 1.666055,0.0067 v 0 c 6.312198,0 12.620834,-0.348037 18.399422,-3.169633 m 39.951564,18.106421 c 5.87404,-1.626545 9.61411,-4.5205 11.34542,-9.696238 v 0 c 0.11367,-0.339158 2.22987,-0.574883 2.79321,-0.108317 v 0 c 5.30447,4.391317 9.32332,9.67404 10.57475,16.662772 v 0 c 0.25394,1.416567 0.41196,2.850003 0.61439,4.275453 v 0 c -5.26186,-4.549799 -9.0268,-4.593305 -17.54439,0.227288 v 0 c -2.56148,-3.738746 -5.0248,-7.334548 -7.78338,-11.360958 m 50.17699,-9.703783 c 5.10381,6.632258 7.10594,14.00676 8.12519,21.876683 v 0 c -2.4598,-2.779422 -5.47005,-4.313185 -8.97619,-3.630872 v 0 c -2.52549,0.49187 -4.96797,1.71977 -7.26529,2.956992 v 0 c -1.40682,0.757782 -2.29599,0.976194 -3.15765,-0.504744 v 0 c -2.16903,-3.727649 -3.35122,-7.72476 -3.53321,-12.472108 v 0 c 0.45368,0.03995 0.89496,0.05949 1.32333,0.05949 v 0 c 6.06092,3.33e-4 9.71932,-3.890568 13.48382,-8.285438 m 27.71032,39.825508 C 178.91517,66.50748 176.5113,61.51908 176.31064,56.778837 v 0 c -0.008,-8.870532 6.04138,-14.697064 13.07231,-13.992553 v 0 c 2.42916,0.243269 4.09788,1.245213 4.24081,4.004213 v 0 c 0.29742,5.738191 0.87588,11.468389 0.97753,17.208801 v 0 c 0.0799,4.484542 -2.43626,7.172514 -5.84028,7.172961 v 0 c -1.38952,0 -2.92639,-0.447924 -4.49566,-1.404141 m -65.31752,6.975414 c -3.99357,-2.291991 -5.93221,-5.957489 -6.03562,-10.570771 v 0 c 0.26503,-6.785412 4.91427,-11.395145 12.38774,-11.859046 v 0 c 2.80653,-0.174464 5.84075,2.265355 5.4288,4.157813 v 0 c -1.08986,5.009262 -2.16371,10.031846 -3.53767,14.967861 v 0 c -0.75422,2.708395 -2.7177,4.227508 -5.03279,4.227508 v 0 c -1.02591,3.33e-4 -2.12063,-0.297872 -3.21046,-0.923365 m 34.2662,3.629986 c -5.05942,-2.406524 -7.01624,-6.906162 -7.38914,-11.258858 v 0 C 145.65,61.026768 151.73666,54.989369 158.79465,55.238858 v 0 c 3.6251,0.128293 5.93927,2.013649 5.5384,4.956434 v 0 c -0.74133,5.445201 -1.54929,10.901941 -2.76031,16.25658 v 0 c -0.70764,3.127906 -2.54193,4.772206 -5.01148,4.772652 v 0 c -1.01928,0 -2.14596,-0.279673 -3.34723,-0.851006"
         style="fill:url(#linearGradient16);stroke:none;stroke-width:0.443925"
         inkscape:label="path16" />
    </g>
  </g>
</svg>
